<?xml version="1.0" standalone="no"?>
<!DOCTYPE svg PUBLIC "-//W3C//DTD SVG 20010904//EN"
 "http://www.w3.org/TR/2001/REC-SVG-20010904/DTD/svg10.dtd">
<svg version="1.0" xmlns="http://www.w3.org/2000/svg"
 width="260.000000pt" height="260.000000pt" viewBox="0 0 260.000000 260.000000"
 preserveAspectRatio="xMidYMid meet">
<metadata>
Created by potrace 1.14, written by Peter Selinger 2001-2017
</metadata>
<g transform="translate(0.000000,260.000000) scale(0.100000,-0.100000)"
fill="#000000" stroke="none">
<path d="M378 2364 c-86 -16 -175 -64 -239 -127 -261 -260 -134 -698 230 -792
66 -17 162 -18 219 -3 29 8 35 6 58 -21 41 -49 89 -40 168 28 28 24 52 38 62
34 15 -6 44 -53 44 -73 0 -6 9 -24 21 -39 l21 -28 -20 -40 c-11 -21 -43 -97
-70 -169 -27 -71 -66 -164 -87 -206 -20 -43 -34 -82 -31 -87 4 -5 17 -8 31 -5
89 16 114 49 178 231 l52 151 29 -86 c34 -103 105 -249 134 -275 26 -24 50
-19 74 13 31 43 187 470 191 526 2 26 -1 29 -31 32 -66 6 -107 -64 -162 -278
-11 -42 -13 -43 -26 -25 -8 11 -33 78 -55 148 -24 74 -49 136 -61 146 -12 11
-37 16 -76 16 l-57 0 -19 53 c-20 57 -53 88 -83 78 -10 -4 -38 -24 -63 -46
-29 -26 -55 -40 -73 -40 -26 0 -23 4 34 48 74 56 137 143 164 227 27 87 25
221 -5 300 -88 230 -310 354 -552 309z m66 -43 c7 -1 1 -97 -9 -153 -5 -26 -9
-30 -63 -53 l-42 -18 -64 59 c-35 32 -63 66 -62 74 3 33 164 104 216 94 8 -1
19 -3 24 -3z m177 -16 c54 -19 129 -66 129 -81 0 -6 -23 -31 -52 -55 -28 -24
-57 -50 -65 -58 -11 -11 -19 -11 -46 2 -18 9 -44 19 -59 22 -16 4 -28 11 -28
15 0 5 -5 43 -11 84 -5 42 -7 81 -4 87 8 13 77 5 136 -16z m-407 -164 c17 -19
41 -45 54 -58 l23 -24 -21 -47 c-31 -68 -36 -77 -46 -78 -5 0 -38 -4 -74 -9
-86 -12 -83 -13 -86 10 -10 69 77 268 109 248 6 -3 24 -22 41 -42z m609 7 c58
-78 88 -179 59 -197 -6 -3 -46 -5 -89 -3 l-80 3 -21 52 -22 51 25 30 c14 17
35 46 48 63 28 41 50 41 80 1z m85 -302 c-10 -69 -22 -99 -59 -158 -19 -29
-36 -45 -44 -42 -7 3 -37 32 -65 65 l-52 60 15 56 c9 31 18 57 20 60 5 5 31
10 98 18 30 4 56 9 58 11 2 2 11 -1 21 -6 15 -8 16 -17 8 -64z m-675 18 c9 -3
17 -12 17 -19 0 -8 7 -30 16 -49 l17 -34 -41 -44 c-22 -23 -49 -54 -60 -68
l-20 -25 -22 20 c-36 33 -72 114 -78 178 l-5 59 79 -6 c43 -4 87 -9 97 -12z
m198 -194 c14 0 20 -16 29 -72 6 -40 14 -81 16 -90 17 -59 -178 -19 -255 53
l-23 22 39 36 c21 20 53 48 71 63 l31 26 38 -19 c20 -10 45 -19 54 -19z m170
18 c0 -2 3 -47 6 -100 5 -91 4 -98 -13 -99 -11 0 -27 -2 -36 -4 -23 -4 -39 17
-34 46 3 13 5 49 5 80 1 48 4 58 24 67 21 10 46 15 48 10z m81 -11 c7 -7 30
-25 51 -41 20 -16 37 -34 37 -41 0 -19 -82 -77 -93 -66 -10 10 -23 161 -14
161 3 0 12 -6 19 -13z"/>
<path d="M2489 1411 c-32 -18 -54 -49 -83 -122 -9 -22 -20 -39 -26 -39 -13 0
-60 -52 -60 -67 0 -6 7 -19 16 -28 16 -15 16 -22 -2 -98 -23 -99 -22 -141 4
-176 39 -53 116 -53 177 1 41 35 43 43 13 45 -41 3 -59 39 -53 102 11 103 14
110 48 119 40 10 76 65 57 87 -7 8 -21 15 -31 15 -24 0 -24 7 1 77 21 60 25
92 13 94 -5 0 -16 2 -25 4 -9 2 -31 -5 -49 -14z"/>
<path d="M1670 1245 c-104 -47 -178 -153 -196 -280 -11 -84 47 -142 133 -132
55 6 138 48 187 94 34 33 36 37 22 52 -15 14 -19 14 -44 -1 -54 -35 -110 -58
-126 -52 -24 9 -19 22 9 22 25 0 84 38 118 77 57 65 75 162 37 205 -25 29 -92
36 -140 15z m42 -127 c-7 -38 -23 -79 -40 -103 -58 -82 -62 -2 -6 113 26 53
39 71 47 63 8 -8 7 -28 -1 -73z"/>
<path d="M2185 1238 c-11 -6 -37 -27 -57 -46 l-37 -35 -26 25 c-50 51 -144 75
-185 48 -13 -8 -10 -14 17 -37 17 -16 48 -54 67 -87 42 -69 40 -76 -35 -132
-63 -48 -84 -88 -62 -121 23 -35 69 -30 123 13 25 20 48 41 53 47 5 8 13 4 25
-13 40 -59 69 -80 111 -80 47 0 87 16 96 38 3 9 -17 51 -50 102 -30 48 -55 93
-55 100 0 7 18 34 40 60 55 65 72 100 58 117 -13 16 -56 16 -83 1z"/>
<path d="M2241 772 c-19 -9 -37 -26 -41 -37 -15 -44 30 -193 87 -286 l22 -37
-27 -11 c-15 -6 -39 -13 -53 -16 -45 -11 -65 -78 -26 -89 35 -9 107 34 149 89
59 78 196 375 182 396 -8 13 -61 -18 -80 -46 -9 -14 -31 -68 -50 -122 -18 -53
-38 -101 -43 -106 -9 -9 -34 86 -46 183 -8 61 -21 100 -32 100 -5 0 -23 -8
-42 -18z"/>
<path d="M1720 740 c-22 -22 -40 -80 -70 -219 -26 -122 -26 -140 2 -150 26 -9
114 -4 138 9 18 10 46 57 38 65 -3 3 -25 1 -49 -4 -24 -5 -45 -8 -48 -5 -2 2
17 69 43 149 26 80 45 152 42 160 -8 22 -72 19 -96 -5z"/>
<path d="M1373 738 c-25 -5 -47 -17 -53 -29 -15 -27 -4 -42 21 -28 12 6 22 9
24 7 2 -2 -12 -57 -31 -123 -41 -141 -51 -200 -36 -209 16 -10 79 19 91 42 5
10 24 76 42 146 17 69 35 126 40 126 13 0 29 -36 29 -65 0 -34 -25 -82 -50
-95 -26 -14 -26 -40 -1 -40 48 0 112 48 134 100 14 35 16 91 4 117 -23 51
-117 73 -214 51z"/>
<path d="M1964 628 c-109 -74 -149 -209 -72 -246 35 -16 83 2 120 47 32 38 36
38 40 5 4 -38 36 -57 68 -41 24 12 25 17 22 87 -1 41 -5 82 -9 90 -3 8 -6 26
-7 40 -1 15 -10 29 -26 37 -42 21 -84 15 -136 -19z m62 -64 c-5 -37 -3 -42 11
-37 14 6 14 3 -3 -19 -29 -39 -53 -52 -70 -37 -20 17 -8 69 28 122 26 37 42
24 34 -29z"/>
</g>
</svg>
